<svg width="1200" height="630" viewBox="0 0 1200 630" fill="none" xmlns="http://www.w3.org/2000/svg">
<rect width="1200" height="630" fill="black"/>
<g clip-path="url(#clip0_20_46)">
<rect x="350" y="65" width="500" height="500" rx="29" fill="black"/>
<rect x="350" y="65" width="500" height="500" fill="white"/>
<path d="M538.96 317.208C539.472 315.843 541.264 310.893 544.336 302.36C547.579 293.827 550.565 287.341 553.296 282.904C557.733 275.907 561.659 272.408 565.072 272.408C569.851 272.408 573.52 273.347 576.08 275.224C578.64 276.931 579.92 279.405 579.92 282.648C579.92 284.184 579.237 286.317 577.872 289.048C576.677 291.779 575.995 293.4 575.824 293.912C568.997 308.931 562.853 325.059 557.392 342.296L552.016 362.264C549.968 368.749 546.469 374.04 541.52 378.136C536.571 382.061 530.768 384.024 524.112 384.024C518.139 384.024 512.592 381.293 507.472 375.832C504.4 371.053 501.157 364.995 497.744 357.656C494.501 350.317 491.685 343.149 489.296 336.152L480.336 309.272C478.459 303.981 476.923 299.459 475.728 295.704C474.704 291.949 474.192 288.536 474.192 285.464C474.021 281.88 475.045 278.979 477.264 276.76C479.483 274.541 482.555 273.432 486.48 273.432C490.917 273.432 494.075 274.371 495.952 276.248C497.829 277.955 499.536 280.685 501.072 284.44C501.755 288.365 503.632 296.387 506.704 308.504L508.496 315.672C510.032 321.475 511.995 327.363 514.384 333.336C516.773 339.309 519.163 345.027 521.552 350.488C521.211 349.635 522.405 352.451 525.136 358.936C526.843 353.987 528.805 347.928 531.024 340.76L538.96 317.208ZM700.724 359.704C703.625 361.923 705.588 364.056 706.612 366.104C707.636 368.152 708.148 370.712 708.148 373.784C708.148 376.344 706.783 378.733 704.052 380.952C701.492 383 699.103 384.024 696.884 384.024C695.007 384.024 692.788 383.427 690.228 382.232C687.668 381.037 685.705 379.672 684.34 378.136C682.463 376.6 678.793 372.845 673.332 366.872C668.041 360.899 664.116 356.205 661.556 352.792C655.412 345.112 652.34 341.272 652.34 341.272L643.38 330.264L626.996 343.576L628.02 371.48C628.02 376.088 626.825 379.331 624.436 381.208C622.217 383.085 619.999 384.024 617.78 384.024C614.537 384.024 611.636 383.427 609.076 382.232C606.687 381.037 605.236 379.672 604.724 378.136C602.847 371.309 601.908 362.349 601.908 351.256C601.908 330.435 602.249 313.795 602.932 301.336C603.615 285.805 603.956 271.128 603.956 257.304C603.956 253.037 603.444 247.149 602.42 239.64C602.249 238.104 601.993 235.629 601.652 232.216C601.311 228.803 601.14 225.731 601.14 223C601.14 219.075 602.42 216.003 604.98 213.784C607.711 211.565 611.209 210.456 615.476 210.456C618.889 210.456 621.62 211.565 623.668 213.784C625.887 215.832 626.996 218.733 626.996 222.488C626.996 228.12 627.167 235.544 627.508 244.76C627.849 253.976 628.02 260.717 628.02 264.984C628.02 270.275 627.849 277.357 627.508 286.232C627.167 291.011 626.996 294.595 626.996 296.984C626.996 304.493 627.081 310.723 627.252 315.672C633.396 309.357 641.588 302.019 651.828 293.656C662.239 285.123 670.345 279.149 676.148 275.736C682.633 271.811 686.559 269.848 687.924 269.848C691.508 269.848 694.58 270.616 697.14 272.152C699.7 273.688 700.98 275.992 700.98 279.064C700.98 282.136 700.553 284.525 699.7 286.232C698.847 287.768 697.311 289.389 695.092 291.096L662.068 315.16C669.407 324.205 677.001 333.421 684.852 342.808C692.703 352.024 697.993 357.656 700.724 359.704Z" fill="black"/>
</g>
<defs>
<clipPath id="clip0_20_46">
<rect x="350" y="65" width="500" height="500" rx="29" fill="white"/>
</clipPath>
</defs>
</svg>
