<svg width="144" height="144" viewBox="0 0 144 144" fill="none" xmlns="http://www.w3.org/2000/svg">
<rect width="144" height="144" rx="8" fill="black"/>
<path d="M44.48 72.104C44.736 71.4213 45.632 68.9467 47.168 64.68C48.7893 60.4133 50.2827 57.1707 51.648 54.952C53.8667 51.4533 55.8293 49.704 57.536 49.704C59.9253 49.704 61.76 50.1733 63.04 51.112C64.32 51.9653 64.96 53.2027 64.96 54.824C64.96 55.592 64.6187 56.6587 63.936 58.024C63.3387 59.3893 62.9973 60.2 62.912 60.456C59.4987 67.9653 56.4267 76.0293 53.696 84.648L51.008 94.632C49.984 97.8747 48.2347 100.52 45.76 102.568C43.2853 104.531 40.384 105.512 37.056 105.512C34.0693 105.512 31.296 104.147 28.736 101.416C27.2 99.0267 25.5787 95.9973 23.872 92.328C22.2507 88.6587 20.8427 85.0747 19.648 81.576L15.168 68.136C14.2293 65.4907 13.4613 63.2293 12.864 61.352C12.352 59.4747 12.096 57.768 12.096 56.232C12.0107 54.44 12.5227 52.9893 13.632 51.88C14.7413 50.7707 16.2773 50.216 18.24 50.216C20.4587 50.216 22.0373 50.6853 22.976 51.624C23.9147 52.4773 24.768 53.8427 25.536 55.72C25.8773 57.6827 26.816 61.6933 28.352 67.752L29.248 71.336C30.016 74.2373 30.9973 77.1813 32.192 80.168C33.3867 83.1547 34.5813 86.0133 35.776 88.744C35.6053 88.3173 36.2027 89.7253 37.568 92.968C38.4213 90.4933 39.4027 87.464 40.512 83.88L44.48 72.104ZM73.01 59.944C72.3273 59.432 71.7727 58.92 71.346 58.408C70.9193 57.8107 70.706 56.7867 70.706 55.336C70.706 53.7147 71.2607 52.4773 72.37 51.624C73.5647 50.6853 74.93 50.216 76.466 50.216C79.4527 50.216 82.0127 50.984 84.146 52.52C86.3647 54.056 87.986 56.1893 89.01 58.92C90.8873 55.4213 93.2767 53.032 96.178 51.752C99.0793 50.3867 103.09 49.704 108.21 49.704C110.258 49.704 112.349 50.344 114.482 51.624C116.701 52.8187 118.706 54.312 120.498 56.104C121.949 57.9813 123.186 60.328 124.21 63.144C125.234 65.8747 125.746 68.3493 125.746 70.568C125.746 71.848 125.661 73.9387 125.49 76.84C125.319 79.912 125.234 82.344 125.234 84.136C125.234 90.1093 126.386 93.7787 128.69 95.144C129.031 95.3147 129.671 95.528 130.61 95.784C131.549 96.04 132.231 96.296 132.658 96.552C133.17 96.808 133.426 97.192 133.426 97.704C133.511 99.752 132.743 101.459 131.122 102.824C129.586 104.104 127.709 104.744 125.49 104.744C122.162 104.744 119.559 103.848 117.682 102.056C115.805 100.264 114.482 97.5333 113.714 93.864C113.287 92.4987 113.074 90.4933 113.074 87.848C113.074 86.3973 113.159 84.0507 113.33 80.808C113.586 78.248 113.714 75.5173 113.714 72.616C113.714 69.6293 112.861 67.0267 111.154 64.808C109.447 62.504 107.101 61.352 104.114 61.352C102.322 61.352 100.445 61.9067 98.482 63.016C96.5193 64.04 95.154 65.32 94.386 66.856C93.106 69.5013 92.2527 72.1893 91.826 74.92C90.802 80.2107 90.29 85.288 90.29 90.152C90.29 91.3467 90.3753 93.6507 90.546 97.064C90.546 97.32 90.546 97.96 90.546 98.984C90.546 99.9227 90.418 100.819 90.162 101.672C89.9913 102.525 89.65 103.293 89.138 103.976C88.7967 104.317 88.1567 104.659 87.218 105C86.2793 105.341 85.4687 105.512 84.786 105.512C83.5913 105.512 82.098 105 80.306 103.976C78.514 102.952 77.4473 101.8 77.106 100.52L76.978 98.728C76.978 98.0453 77.0633 97.0213 77.234 95.656C78.258 89.6827 78.77 84.4773 78.77 80.04C78.77 78.0773 78.7273 76.584 78.642 75.56L78.514 69.672C78.514 67.88 78.002 66.1733 76.978 64.552C75.954 62.8453 74.6313 61.3093 73.01 59.944Z" fill="white"/>
</svg>
