<svg width="144" height="144" viewBox="0 0 144 144" fill="none" xmlns="http://www.w3.org/2000/svg">
<rect width="144" height="144" rx="8" fill="black"/>
<path d="M44.48 72.104C44.736 71.4213 45.632 68.9467 47.168 64.68C48.7893 60.4133 50.2827 57.1707 51.648 54.952C53.8667 51.4533 55.8293 49.704 57.536 49.704C59.9253 49.704 61.76 50.1733 63.04 51.112C64.32 51.9653 64.96 53.2027 64.96 54.824C64.96 55.592 64.6187 56.6587 63.936 58.024C63.3387 59.3893 62.9973 60.2 62.912 60.456C59.4987 67.9653 56.4267 76.0293 53.696 84.648L51.008 94.632C49.984 97.8747 48.2347 100.52 45.76 102.568C43.2853 104.531 40.384 105.512 37.056 105.512C34.0693 105.512 31.296 104.147 28.736 101.416C27.2 99.0267 25.5787 95.9973 23.872 92.328C22.2507 88.6587 20.8427 85.0747 19.648 81.576L15.168 68.136C14.2293 65.4907 13.4613 63.2293 12.864 61.352C12.352 59.4747 12.096 57.768 12.096 56.232C12.0107 54.44 12.5227 52.9893 13.632 51.88C14.7413 50.7707 16.2773 50.216 18.24 50.216C20.4587 50.216 22.0373 50.6853 22.976 51.624C23.9147 52.4773 24.768 53.8427 25.536 55.72C25.8773 57.6827 26.816 61.6933 28.352 67.752L29.248 71.336C30.016 74.2373 30.9973 77.1813 32.192 80.168C33.3867 83.1547 34.5813 86.0133 35.776 88.744C35.6053 88.3173 36.2027 89.7253 37.568 92.968C38.4213 90.4933 39.4027 87.464 40.512 83.88L44.48 72.104ZM125.362 93.352C126.813 94.4613 127.794 95.528 128.306 96.552C128.818 97.576 129.074 98.856 129.074 100.392C129.074 101.672 128.391 102.867 127.026 103.976C125.746 105 124.551 105.512 123.442 105.512C122.503 105.512 121.394 105.213 120.114 104.616C118.834 104.019 117.853 103.336 117.17 102.568C116.231 101.8 114.397 99.9227 111.666 96.936C109.021 93.9493 107.058 91.6027 105.778 89.896C102.706 86.056 101.17 84.136 101.17 84.136L96.69 78.632L88.498 85.288L89.01 99.24C89.01 101.544 88.4127 103.165 87.218 104.104C86.1087 105.043 84.9993 105.512 83.89 105.512C82.2687 105.512 80.818 105.213 79.538 104.616C78.3433 104.019 77.618 103.336 77.362 102.568C76.4233 99.1547 75.954 94.6747 75.954 89.128C75.954 78.7173 76.1247 70.3973 76.466 64.168C76.8073 56.4027 76.978 49.064 76.978 42.152C76.978 40.0187 76.722 37.0747 76.21 33.32C76.1247 32.552 75.9967 31.3147 75.826 29.608C75.6553 27.9013 75.57 26.3653 75.57 25C75.57 23.0373 76.21 21.5013 77.49 20.392C78.8553 19.2827 80.6047 18.728 82.738 18.728C84.4447 18.728 85.81 19.2827 86.834 20.392C87.9433 21.416 88.498 22.8667 88.498 24.744C88.498 27.56 88.5833 31.272 88.754 35.88C88.9247 40.488 89.01 43.8587 89.01 45.992C89.01 48.6373 88.9247 52.1787 88.754 56.616C88.5833 59.0053 88.498 60.7973 88.498 61.992C88.498 65.7467 88.5407 68.8613 88.626 71.336C91.698 68.1787 95.794 64.5093 100.914 60.328C106.119 56.0613 110.173 53.0747 113.074 51.368C116.317 49.4053 118.279 48.424 118.962 48.424C120.754 48.424 122.29 48.808 123.57 49.576C124.85 50.344 125.49 51.496 125.49 53.032C125.49 54.568 125.277 55.7627 124.85 56.616C124.423 57.384 123.655 58.1947 122.546 59.048L106.034 71.08C109.703 75.6027 113.501 80.2107 117.426 84.904C121.351 89.512 123.997 92.328 125.362 93.352Z" fill="white"/>
</svg>
